<?xml version="1.0" encoding="UTF-8" standalone="no"?>
<svg
   xmlns:dc="http://purl.org/dc/elements/1.1/"
   xmlns:cc="http://creativecommons.org/ns#"
   xmlns:rdf="http://www.w3.org/1999/02/22-rdf-syntax-ns#"
   xmlns:svg="http://www.w3.org/2000/svg"
   xmlns="http://www.w3.org/2000/svg"
   xmlns:xlink="http://www.w3.org/1999/xlink"
   xmlns:sodipodi="http://sodipodi.sourceforge.net/DTD/sodipodi-0.dtd"
   xmlns:inkscape="http://www.inkscape.org/namespaces/inkscape"
   width="210mm"
   height="297mm"
   viewBox="0 0 210 297"
   version="1.1"
   id="svg8"
   inkscape:version="1.0.1 (c497b03c, 2020-09-10)"
   sodipodi:docname="imageVectors.svg">
  <defs
     id="defs2" />
  <sodipodi:namedview
     id="base"
     pagecolor="#ffffff"
     bordercolor="#666666"
     borderopacity="1.0"
     inkscape:pageopacity="0.0"
     inkscape:pageshadow="2"
     inkscape:zoom="0.49497475"
     inkscape:cx="102.90714"
     inkscape:cy="811.59503"
     inkscape:document-units="mm"
     inkscape:current-layer="layer1"
     inkscape:document-rotation="0"
     showgrid="false"
     inkscape:window-width="1613"
     inkscape:window-height="1035"
     inkscape:window-x="0"
     inkscape:window-y="23"
     inkscape:window-maximized="0" />
  <metadata
     id="metadata5">
    <rdf:RDF>
      <cc:Work
         rdf:about="">
        <dc:format>image/svg+xml</dc:format>
        <dc:type
           rdf:resource="http://purl.org/dc/dcmitype/StillImage" />
        <dc:title />
      </cc:Work>
    </rdf:RDF>
  </metadata>
  <g
     inkscape:label="Layer 1"
     inkscape:groupmode="layer"
     id="layer1">
    <image
       sodipodi:absref="/Users/eusebioaguayo/Documents/developmentPractice/todoist/images/nasa logo/baseImages/1920px-NASA_Worm_logo.png"
       xlink:href="baseImages/1920px-NASA_Worm_logo.png"
       width="49.323002"
       height="13.795028"
       preserveAspectRatio="none"
       id="image900"
       x="126.93787"
       y="11.968914"
       style="fill:#2b0000;fill-opacity:1" />
    <g
       id="g2185"
       inkscape:export-filename="/Users/eusebioaguayo/Documents/developmentPractice/todoist/images/nasa logo/finalImages/nasa_placeholder.png"
       inkscape:export-xdpi="90"
       inkscape:export-ydpi="90">
      <rect
         style="fill:#ffffff;stroke-width:0.163026"
         id="rect2181"
         width="130.42754"
         height="130.42754"
         x="47.573975"
         y="119.20221" />
      <path
         style="fill:#db362d;fill-opacity:0.385965;stroke-width:0.0256891"
         d="m 97.596335,191.271 c -0.864408,-0.0568 -1.621067,-0.37876 -2.153322,-0.91613 -0.469816,-0.47433 -0.728154,-0.99015 -1.044464,-2.08547 -0.05533,-0.1916 -0.51151,-1.90319 -1.01373,-3.80354 -0.50222,-1.90035 -0.94344,-3.52753 -0.98049,-3.61595 -0.154871,-0.3696 -0.371489,-0.52791 -0.726081,-0.53065 -0.255211,-0.002 -0.407286,0.0556 -0.537328,0.2033 -0.185806,0.21109 -0.171122,-0.23024 -0.17885,5.37546 l -0.007,5.06717 h -1.412584 -1.412585 l 2.33e-4,-4.92588 c 1.35e-4,-2.85789 0.01076,-5.12607 0.02531,-5.40273 0.04366,-0.83009 0.15036,-1.23386 0.447411,-1.69306 0.154609,-0.239 0.510509,-0.60623 0.742559,-0.7662 0.666813,-0.45969 1.621136,-0.68459 2.619341,-0.61728 0.779677,0.0526 1.528271,0.34643 2.033287,0.79817 0.513327,0.45916 0.855099,1.12827 1.19296,2.33552 0.05669,0.20258 0.496979,1.85957 0.978414,3.68222 0.481434,1.82263 0.905123,3.3996 0.941529,3.50435 0.157615,0.45354 0.391973,0.63483 0.81213,0.62824 0.315855,-0.005 0.507889,-0.14115 0.629162,-0.44621 0.04351,-0.10946 0.04633,-0.38368 0.05306,-5.15709 l 0.0071,-5.04148 h 1.399373 1.39938 v 5.1084 c 0,3.30609 -0.009,5.22527 -0.0267,5.43966 -0.0668,0.82884 -0.23987,1.27689 -0.69945,1.81105 -0.49733,0.57803 -1.420553,0.98771 -2.341623,1.03909 -0.128296,0.007 -0.285285,0.0163 -0.348866,0.0203 -0.06358,0.004 -0.242761,-0.001 -0.39818,-0.0113 z m 3.493475,-0.33771 c 0.006,-0.0178 0.8084,-2.5293 1.78281,-5.58116 0.97441,-3.05186 1.80286,-5.63524 1.841,-5.74084 0.40039,-1.10851 1.12893,-1.76973 2.195,-1.99217 0.43221,-0.0902 1.29222,-0.0905 1.717,-5.3e-4 0.93128,0.19713 1.63033,0.75178 2.03346,1.61338 0.13941,0.29796 0.1778,0.41486 1.61986,4.93204 l 1.29371,4.05245 h 3.60217 c 2.43165,0 3.66678,-0.009 3.80099,-0.0276 0.62377,-0.0868 0.93496,-0.43368 0.97755,-1.08982 0.046,-0.7083 -0.26655,-1.11465 -0.97998,-1.27413 -0.0839,-0.0187 -0.81011,-0.0355 -2.09365,-0.0482 -1.57282,-0.0156 -2.03058,-0.0278 -2.29259,-0.0612 -0.78711,-0.10032 -1.33961,-0.28689 -1.85272,-0.62562 -0.23717,-0.15657 -0.69419,-0.61252 -0.84433,-0.84236 -0.59552,-0.91164 -0.81851,-2.15487 -0.59645,-3.32544 0.141,-0.74329 0.51719,-1.41226 1.12139,-1.99412 0.64726,-0.62333 1.32365,-0.90884 2.43174,-1.02645 0.28746,-0.0305 0.96919,-0.0372 3.79908,-0.0375 l 3.44876,-2.7e-4 v 1.3736 1.3736 l -3.61574,0.008 c -3.22543,0.007 -3.63002,0.0125 -3.74803,0.0491 -0.55219,0.17135 -0.80431,0.57968 -0.77343,1.2526 0.0162,0.35227 0.0766,0.51482 0.26846,0.72204 0.16416,0.17732 0.35704,0.28029 0.65011,0.34707 0.16807,0.0383 0.44523,0.0464 2.17072,0.0638 2.07517,0.0209 2.24793,0.0301 2.8196,0.15039 1.09772,0.231 1.92017,0.84862 2.39448,1.79812 0.12065,0.24152 0.27676,0.70987 0.35211,1.05637 0.0526,0.24187 0.0586,0.3374 0.0582,0.9248 -4.4e-4,0.58358 -0.007,0.68451 -0.0588,0.92481 -0.11995,0.55481 -0.30997,0.99497 -0.61368,1.42153 -0.19379,0.27219 -0.68761,0.76626 -0.93442,0.93489 -0.39756,0.27164 -0.863,0.463 -1.39394,0.57312 -0.60816,0.12613 -0.64133,0.12689 -5.53927,0.12718 l -4.58557,2.8e-4 -1.64192,-5.14424 c -0.90305,-2.82933 -1.66465,-5.19396 -1.69244,-5.25474 -0.0713,-0.15604 -0.19444,-0.24251 -0.3654,-0.25669 -0.26074,-0.0216 -0.42299,0.0516 -0.51699,0.23339 -0.0223,0.0431 -0.78313,2.40291 -1.69073,5.24393 l -1.65018,5.1655 -1.45453,0.007 c -1.15977,0.005 -1.45226,8e-5 -1.44336,-0.0257 z m 23.01508,-0.0312 c 0.0625,-0.24913 3.62829,-11.35223 3.70274,-11.52962 0.17713,-0.42206 0.46425,-0.83982 0.74196,-1.07958 0.61093,-0.52743 1.24289,-0.74054 2.19848,-0.74134 0.81433,-6.9e-4 1.35664,0.13349 1.86256,0.46082 0.59457,0.38469 0.98465,0.92152 1.25472,1.72675 0.0498,0.14835 0.87258,2.71935 1.82849,5.71334 0.95591,2.99397 1.74403,5.45926 1.75137,5.4784 0.0112,0.0291 -0.2264,0.0337 -1.44375,0.0282 l -1.45711,-0.007 -1.64982,-5.1635 c -0.9074,-2.83993 -1.66799,-5.19819 -1.69019,-5.24057 -0.0905,-0.17274 -0.22309,-0.24429 -0.45152,-0.24363 -0.20321,5.9e-4 -0.33174,0.0758 -0.4162,0.24363 -0.0356,0.0706 -0.80387,2.44335 -1.70735,5.27268 l -1.64271,5.14424 h -1.44876 -1.44876 z"
         id="path906" />
    </g>
  </g>
</svg>
